<svg width="79" height="79" viewBox="0 0 79 79" fill="none" xmlns="http://www.w3.org/2000/svg">
<path d="M23.7 7.89999C21.6048 7.89999 19.5954 8.73231 18.1138 10.2138C16.6323 11.6954 15.8 13.7048 15.8 15.8V63.2C15.8 65.2952 16.6323 67.3046 18.1138 68.7861C19.5954 70.2677 21.6048 71.1 23.7 71.1H61.225C61.7488 71.1 62.2511 70.8919 62.6215 70.5215C62.9919 70.1511 63.2 69.6488 63.2 69.125C63.2 68.6012 62.9919 68.0988 62.6215 67.7285C62.2511 67.3581 61.7488 67.15 61.225 67.15H23.7C22.6524 67.15 21.6477 66.7338 20.9069 65.9931C20.1661 65.2523 19.75 64.2476 19.75 63.2H59.25C60.2976 63.2 61.3023 62.7838 62.0431 62.0431C62.7838 61.3023 63.2 60.2976 63.2 59.25V15.8C63.2 13.7048 62.3677 11.6954 60.8861 10.2138C59.4046 8.73231 57.3952 7.89999 55.3 7.89999H23.7ZM45.7647 39.022L50.7733 44.0267C51.1441 44.3975 51.3525 44.9005 51.3525 45.425C51.3525 45.9495 51.1441 46.4524 50.7733 46.8233C50.4024 47.1941 49.8995 47.4025 49.375 47.4025C48.8505 47.4025 48.3475 47.1941 47.9767 46.8233L42.972 41.8147C40.9305 43.1641 38.4607 43.7075 36.0413 43.3394C33.6219 42.9713 31.4254 41.7179 29.8777 39.8223C28.3299 37.9268 27.5411 35.524 27.6642 33.0799C27.7873 30.6358 28.8136 28.3245 30.544 26.594C32.2745 24.8636 34.5858 23.8374 37.0299 23.7142C39.474 23.5911 41.8768 24.3799 43.7723 25.9277C45.6679 27.4755 46.9212 29.6719 47.2894 32.0913C47.6575 34.5107 47.1141 36.9805 45.7647 39.022ZM31.6 33.575C31.6 32.0036 32.2242 30.4965 33.3354 29.3854C34.4465 28.2742 35.9536 27.65 37.525 27.65C39.0964 27.65 40.6034 28.2742 41.7146 29.3854C42.8257 30.4965 43.45 32.0036 43.45 33.575C43.45 35.1464 42.8257 36.6534 41.7146 37.7646C40.6034 38.8758 39.0964 39.5 37.525 39.5C35.9536 39.5 34.4465 38.8758 33.3354 37.7646C32.2242 36.6534 31.6 35.1464 31.6 33.575Z" fill="#5D5FEF"/>
</svg>
